<svg xmlns="http://www.w3.org/2000/svg" viewBox="0 0 24 24" id="chatbot">
  <path fill="#5fe4d4" d="M5 9.25h-.253c-1.377 0-2.497 1.121-2.497 2.498v2.505c0 1.377 1.12 2.497 2.497 2.497h.253c.965 0 1.75-.785 1.75-1.75v-4c0-.965-.785-1.75-1.75-1.75zM19.253 9.25h-.253c-.965 0-1.75.785-1.75 1.75v4c0 .965.785 1.75 1.75 1.75h.253c1.377 0 2.497-1.12 2.497-2.497v-2.505c0-1.377-1.12-2.498-2.497-2.498z" class="color91cafe svgShape"></path>
  <rect width="13.5" height="12.5" x="5.25" y="6.25" fill="#8526fe" rx="2.75" ry="2.75" class="colorc8e4fe svgShape"></rect>
  <path fill="#ad59d4" d="m10,12.75c-.414,0-.75-.336-.75-.75v-1c0-.414.336-.75.75-.75s.75.336.75.75v1c0,.414-.336.75-.75.75Zm11.75-1.002v2.505c0,1.377-1.12,2.497-2.497,2.497h-.253c-.026,0-.05-.007-.076-.008-.366,2.821-2.778,5.008-5.697,5.008h-1.228c-.414,0-.75-.336-.75-.75s.336-.75.75-.75h1.228c1.31,0,2.468-.608,3.249-1.542-.155.027-.313.042-.476.042h-8c-1.268,0-2.328-.867-2.644-2.037-.115.024-.234.037-.356.037h-.253c-1.377,0-2.497-1.12-2.497-2.497v-2.505c0-1.219.879-2.233,2.036-2.451.357-3.945,3.678-7.047,7.714-7.047s7.357,3.102,7.714,7.047c1.157.218,2.036,1.232,2.036,2.451Zm-16.5-.748c0-.138-.112-.25-.25-.25h-.253c-.55,0-.997.447-.997.998v2.505c0,.55.447.997.997.997h.253c.138,0,.25-.112.25-.25v-4Zm1.552-4.464c.364-.178.767-.286,1.198-.286h8c.432,0,.835.109,1.198.286-1.122-1.678-3.033-2.786-5.198-2.786s-4.077,1.108-5.198,2.786Zm9.198,10.714c.689,0,1.25-.561,1.25-1.25v-7c0-.689-.561-1.25-1.25-1.25h-8c-.689,0-1.25.561-1.25,1.25v7c0,.689.561,1.25,1.25,1.25h8Zm4.25-5.502c0-.55-.447-.998-.997-.998h-.253c-.138,0-.25.112-.25.25v4c0,.138.112.25.25.25h.253c.55,0,.997-.447.997-.997v-2.505Zm-6.25-1.498c-.414,0-.75.336-.75.75v1c0,.414.336.75.75.75s.75-.336.75-.75v-1c0-.414-.336-.75-.75-.75Zm-1,4h-2c-.414,0-.75.336-.75.75s.336.75.75.75h2c.414,0,.75-.336.75-.75s-.336-.75-.75-.75Z" class="color494249 svgShape"></path>
</svg>
