<svg xmlns="http://www.w3.org/2000/svg" fill-rule="evenodd" clip-rule="evenodd" image-rendering="optimizeQuality" shape-rendering="geometricPrecision" text-rendering="geometricPrecision" viewBox="0 0 128 128" id="emoji-pro">
  <g fill="#8526fe" class="color000000 svgShape">
    <path fill="#5fe4d4" d="M 60.5,3.5 C 62.5273,3.33788 64.5273,3.50454 66.5,4C 68.0569,6.29553 69.7236,8.46219 71.5,10.5C 79.481,2.66167 84.8144,4.16167 87.5,15C 96.2192,17.8759 104.886,20.8759 113.5,24C 114.861,25.5843 115.528,27.4176 115.5,29.5C 114.127,29.6567 112.793,29.49 111.5,29C 109.623,26.8942 107.29,25.5609 104.5,25C 98.5,23.6667 92.5,22.3333 86.5,21C 82.6533,18.9875 80.32,15.8208 79.5,11.5C 73.1396,18.7897 67.9729,18.123 64,9.5C 62.13,11.4053 60.63,13.5719 59.5,16C 54.7672,16.9621 50.9339,15.4621 48,11.5C 46.744,13.7543 45.5773,16.0877 44.5,18.5C 43.3349,19.5836 42.0016,20.4169 40.5,21C 34.5511,22.5472 28.5511,23.8806 22.5,25C 19.71,25.5609 17.3766,26.8942 15.5,29C 13.6815,29.7828 12.3482,29.2828 11.5,27.5C 12.6477,25.8513 13.981,24.3513 15.5,23C 23.1667,20.6667 30.8333,18.3333 38.5,16C 41.2246,13.0584 43.2246,9.72511 44.5,6C 48.8697,5.92783 52.703,7.42783 56,10.5C 58.0094,8.47797 59.5094,6.14463 60.5,3.5 Z" opacity=".815" class="color00b9f1 svgShape"></path>
  </g>
  <g fill="#8526fe" class="color000000 svgShape">
    <path fill="#c4b8a7" d="M 105.5,84.5 C 105.5,92.8333 105.5,101.167 105.5,109.5C 105.5,110.833 105.5,112.167 105.5,113.5C 77.5,113.5 49.5,113.5 21.5,113.5C 21.5,112.167 21.5,110.833 21.5,109.5C 21.5,101.167 21.5,92.8333 21.5,84.5C 20.2497,71.0176 21.4164,57.6842 25,44.5C 32.8935,28.7975 45.7268,21.7975 63.5,23.5C 87.3772,22.0077 101.21,33.0077 105,56.5C 105.5,65.8274 105.666,75.1607 105.5,84.5 Z" opacity=".982" class="colorb6c4a7 svgShape"></path>
  </g>
  <g fill="#8526fe" class="color000000 svgShape">
    <path fill="#feb952" d="M 13.5,47.5 C 12.1667,47.5 10.8333,47.5 9.5,47.5C 5.34361,46.569 3.01028,43.9023 2.5,39.5C 5.2565,31.083 10.4232,29.083 18,33.5C 20,37.5 20,41.5 18,45.5C 16.6703,46.5822 15.1703,47.2488 13.5,47.5 Z" opacity=".916" class="colorfe5262 svgShape"></path>
  </g>
  <g fill="#8526fe" class="color000000 svgShape">
    <path fill="#5fe4d4" d="M 117.5,47.5 C 116.167,47.5 114.833,47.5 113.5,47.5C 109.344,46.569 107.01,43.9023 106.5,39.5C 109.256,31.083 114.423,29.083 122,33.5C 124,37.5 124,41.5 122,45.5C 120.67,46.5822 119.17,47.2488 117.5,47.5 Z" opacity=".916" class="color00b9f1 svgShape"></path>
  </g>
  <g fill="#8526fe" class="color000000 svgShape">
    <path fill="#d5faf6" d="M 37.5,46.5 C 47.1214,45.0596 53.9548,48.7263 58,57.5C 59.1667,72.3333 52.3333,79.1667 37.5,78C 26.9016,72.5385 24.0683,64.3718 29,53.5C 31.4412,50.5464 34.2745,48.2131 37.5,46.5 Z" class="coloreafad5 svgShape"></path>
  </g>
  <g fill="#8526fe" class="color000000 svgShape">
    <path fill="#d5faf6" d="M 79.5,46.5 C 89.1214,45.0596 95.9548,48.7263 100,57.5C 101.167,72.3333 94.3333,79.1667 79.5,78C 68.9016,72.5385 66.0683,64.3718 71,53.5C 73.4412,50.5464 76.2745,48.2131 79.5,46.5 Z" class="coloreafad5 svgShape"></path>
  </g>
  <g fill="#8526fe" class="color000000 svgShape">
    <path fill="#433d46" d="M 9.5,47.5 C 10.8333,47.5 12.1667,47.5 13.5,47.5C 13.5,63.1667 13.5,78.8333 13.5,94.5C 14.8333,94.5 16.1667,94.5 17.5,94.5C 17.5,96.1667 17.5,97.8333 17.5,99.5C 14.8333,99.5 12.1667,99.5 9.5,99.5C 9.5,82.1667 9.5,64.8333 9.5,47.5 Z" opacity=".987" class="color3d4346 svgShape"></path>
  </g>
  <g fill="#8526fe" class="color000000 svgShape">
    <path fill="#433d46" d="M 113.5,47.5 C 114.833,47.5 116.167,47.5 117.5,47.5C 117.5,64.8333 117.5,82.1667 117.5,99.5C 114.833,99.5 112.167,99.5 109.5,99.5C 109.5,97.8333 109.5,96.1667 109.5,94.5C 110.833,94.5 112.167,94.5 113.5,94.5C 113.5,78.8333 113.5,63.1667 113.5,47.5 Z" opacity=".987" class="color3d4346 svgShape"></path>
  </g>
  <g fill="#8526fe" class="color000000 svgShape">
    <path fill="#5f5763" d="M 38.5,50.5 C 51.6831,49.8876 56.5164,55.8876 53,68.5C 50.5421,72.5541 46.8755,74.5541 42,74.5C 32.9226,73.0375 29.2559,67.7042 31,58.5C 32.3532,54.6499 34.8532,51.9832 38.5,50.5 Z" class="color575e63 svgShape"></path>
  </g>
  <g fill="#8526fe" class="color000000 svgShape">
    <path fill="#5f5763" d="M 80.5,50.5 C 93.6831,49.8876 98.5164,55.8876 95,68.5C 92.5421,72.5541 88.8755,74.5541 84,74.5C 74.9226,73.0375 71.2559,67.7042 73,58.5C 74.3532,54.6499 76.8532,51.9832 80.5,50.5 Z" class="color575e63 svgShape"></path>
  </g>
  <g fill="#8526fe" class="color000000 svgShape">
    <path fill="#d8a353" d="M 40.5,57.5 C 47.8211,58.3193 49.1545,61.486 44.5,67C 37.075,66.4845 35.7416,63.3178 40.5,57.5 Z" class="colorf05362 svgShape"></path>
  </g>
  <g fill="#8526fe" class="color000000 svgShape">
    <path fill="#d8a353" d="M 82.5,57.5 C 89.8211,58.3193 91.1545,61.486 86.5,67C 79.075,66.4845 77.7416,63.3178 82.5,57.5 Z" class="colorf05362 svgShape"></path>
  </g>
  <g fill="#8526fe" class="color000000 svgShape">
    <path fill="#f0f0f0" d="M 61.5,70.5 C 64.639,68.8057 66.639,69.8057 67.5,73.5C 67.4573,74.4164 67.1239,75.0831 66.5,75.5C 65.1667,73.5 63.5,71.8333 61.5,70.5 Z" class="colorf0f0f0 svgShape"></path>
  </g>
  <g fill="#8526fe" class="color000000 svgShape">
    <path fill="#ad59d4" d="M 61.5,70.5 C 63.5,71.8333 65.1667,73.5 66.5,75.5C 66.5,76.1667 66.1667,76.5 65.5,76.5C 63.5,75.1667 61.8333,73.5 60.5,71.5C 60.5,70.8333 60.8333,70.5 61.5,70.5 Z" class="color676d72 svgShape"></path>
  </g>
  <g fill="#8526fe" class="color000000 svgShape">
    <path fill="#f0f0f0" d="M 60.5,71.5 C 61.8333,73.5 63.5,75.1667 65.5,76.5C 62.361,78.1943 60.361,77.1943 59.5,73.5C 59.5427,72.5836 59.8761,71.9169 60.5,71.5 Z" class="colorf0f0f0 svgShape"></path>
  </g>
  <g fill="#8526fe" class="color000000 svgShape">
    <path fill="#d4faf5" d="M 35.5,81.5 C 54.1696,81.3334 72.8363,81.5001 91.5,82C 100.303,87.9214 101.803,95.4214 96,104.5C 95.0975,105.701 93.9308,106.535 92.5,107C 73.1667,107.667 53.8333,107.667 34.5,107C 29.9784,104.122 27.9784,99.9549 28.5,94.5C 27.9716,88.5531 30.3049,84.2198 35.5,81.5 Z" class="coloreafad4 svgShape"></path>
  </g>
  <g fill="#8526fe" class="color000000 svgShape">
    <path fill="#968a79" d="M 21.5,84.5 C 21.5,92.8333 21.5,101.167 21.5,109.5C 20.1779,109.67 19.0113,109.337 18,108.5C 17.7266,106.899 17.2266,105.399 16.5,104C 17.3802,102.644 17.7135,101.144 17.5,99.5C 17.5,97.8333 17.5,96.1667 17.5,94.5C 17.3359,91.8127 17.5026,89.146 18,86.5C 19.1127,85.695 20.2794,85.0283 21.5,84.5 Z" opacity=".932" class="color889679 svgShape"></path>
  </g>
  <g fill="#8526fe" class="color000000 svgShape">
    <path fill="#958a79" d="M 36.5,84.5 C 54.5031,84.3334 72.5031,84.5001 90.5,85C 96.1743,90.0522 97.0076,95.8855 93,102.5C 92.2496,103.126 91.4162,103.626 90.5,104C 72.5,104.667 54.5,104.667 36.5,104C 33.1398,101.627 31.4731,98.2933 31.5,94C 31.7264,90.046 33.3931,86.8793 36.5,84.5 Z" class="color889579 svgShape"></path>
  </g>
  <g fill="#8526fe" class="color000000 svgShape">
    <path fill="#968a79" d="M 105.5,84.5 C 106.721,85.0283 107.887,85.695 109,86.5C 109.497,89.146 109.664,91.8127 109.5,94.5C 109.5,96.1667 109.5,97.8333 109.5,99.5C 109.665,102.518 109.498,105.518 109,108.5C 107.989,109.337 106.822,109.67 105.5,109.5C 105.5,101.167 105.5,92.8333 105.5,84.5 Z" opacity=".94" class="color889679 svgShape"></path>
  </g>
  <g fill="#8526fe" class="color000000 svgShape">
    <path fill="#635f5a" d="M 38.5,86.5 C 39.8221,86.33 40.9887,86.6634 42,87.5C 42.6667,92.1667 42.6667,96.8333 42,101.5C 40.6439,102.38 39.1439,102.714 37.5,102.5C 37.2175,97.0735 37.5509,91.7401 38.5,86.5 Z" class="color5b635a svgShape"></path>
  </g>
  <g fill="#8526fe" class="color000000 svgShape">
    <path fill="#635f5a" d="M 57.5,86.5 C 58.8221,86.33 59.9887,86.6634 61,87.5C 61.6667,92.1667 61.6667,96.8333 61,101.5C 59.6439,102.38 58.1439,102.714 56.5,102.5C 56.2175,97.0735 56.5509,91.7401 57.5,86.5 Z" class="color5b635a svgShape"></path>
  </g>
  <g fill="#8526fe" class="color000000 svgShape">
    <path fill="#635f5a" d="M 66.5,86.5 C 67.8221,86.33 68.9887,86.6634 70,87.5C 70.4993,92.4889 70.6659,97.4889 70.5,102.5C 68.8561,102.714 67.3561,102.38 66,101.5C 65.2223,96.4158 65.3889,91.4158 66.5,86.5 Z" class="color5b635a svgShape"></path>
  </g>
  <g fill="#8526fe" class="color000000 svgShape">
    <path fill="#5f5c57" d="M 85.5,86.5 C 86.8221,86.33 87.9887,86.6634 89,87.5C 89.6667,92.1667 89.6667,96.8333 89,101.5C 87.9887,102.337 86.8221,102.67 85.5,102.5C 85.5,97.1667 85.5,91.8333 85.5,86.5 Z" class="color575f58 svgShape"></path>
  </g>
  <g fill="#8526fe" class="color000000 svgShape">
    <path fill="#5d5a55" d="M 47.5,86.5 C 48.8221,86.33 49.9887,86.6634 51,87.5C 51.4993,92.4889 51.6659,97.4889 51.5,102.5C 50.1667,102.5 48.8333,102.5 47.5,102.5C 47.5,97.1667 47.5,91.8333 47.5,86.5 Z" class="color555d56 svgShape"></path>
  </g>
  <g fill="#8526fe" class="color000000 svgShape">
    <path fill="#5d5a55" d="M 76.5,86.5 C 77.5,86.5 78.5,86.5 79.5,86.5C 79.5,91.8333 79.5,97.1667 79.5,102.5C 78.1667,102.5 76.8333,102.5 75.5,102.5C 75.2175,97.0735 75.5509,91.7401 76.5,86.5 Z" class="color555d56 svgShape"></path>
  </g>
  <g fill="#8526fe" class="color000000 svgShape">
    <path fill="#968a79" d="M 21.5,113.5 C 49.5,113.5 77.5,113.5 105.5,113.5C 106.057,117.888 104.39,121.055 100.5,123C 75.8333,123.667 51.1667,123.667 26.5,123C 22.8482,120.855 21.1816,117.689 21.5,113.5 Z" opacity=".986" class="color889679 svgShape"></path>
  </g>
</svg>
