<svg xmlns="http://www.w3.org/2000/svg" fill-rule="evenodd" clip-rule="evenodd" image-rendering="optimizeQuality" shape-rendering="geometricPrecision" text-rendering="geometricPrecision" viewBox="0 0 4335 4335" id="Robot">
  <path fill="#8526fe" d="M2152 4158h872s345 51 345-304v-771s-11-596-435-934c-81 185-265 314-480 315h-603c-202 0-376-114-464-281-385 342-395 900-395 900v771c0 355 345 304 345 304h815z" class="color56698f svgShape"></path>
  <path fill="#ad59d4" d="M2694 1904s90 330-513 330-612-349-612-349 815-193 1126 19z" class="color7690c9 svgShape"></path>
  <path fill="#8526fe" d="M1897 2281h-2c-216 0-396-153-438-356 2 0 5 0 7 1-278-23-499-258-499-542 0-283 218-517 495-542 31-127 115-233 228-292 108-59 207-51 207-51h524c103 3 182 36 243 80 88 62 153 154 179 262 276 25 495 259 495 542 0 284-221 519-499 542 2 0 5 0 7-1-42 203-222 356-438 356h-513zm497-130h16c161 0 214-81 230-123 4-7 7-15 7-24 0-25-20-45-45-45h-901c-25 0-45 20-45 45 0 9 3 17 7 24 16 42 69 123 230 123h498zm441-225c-3 0-7 0-10 1 3 0 7 0 10-1zm-13 1h-12 12zm-13 0h-13 13zm-1338-1c3 0 7 0 10 1-3 0-7 0-10-1zm13 1h12-12zm13 0h13-13z" class="color56698f svgShape"></path>
  <path fill="#5fe4d4" d="M1520 948c241 0 437 196 437 437s-196 437-437 437-437-196-437-437 196-437 437-437zm1277 0c241 0 437 196 437 437s-196 437-437 437-437-196-437-437 196-437 437-437zm0 116c178 0 321 144 321 321 0 178-144 321-321 321-178 0-321-144-321-321 0-178 144-321 321-321zm-1277 0c178 0 321 144 321 321 0 178-144 321-321 321-178 0-321-144-321-321 0-178 144-321 321-321z" class="colorebecec svgShape"></path>
  <path fill="#ad59d4" d="M1520 1163c123 0 222 100 222 222 0 123-100 222-222 222-123 0-222-100-222-222 0-123 100-222 222-222zm1277 0c123 0 222 100 222 222 0 123-100 222-222 222-123 0-222-100-222-222 0-123 100-222 222-222z" class="color7690c9 svgShape"></path>
  <path fill="#8526fe" d="M2844 842c-5 2-164 71-681 71h-20c-517 0-677-69-681-71 0-2 9-39 29-94 81-259 187-505 526-561 37-8 76-12 117-12h40c41 0 80 4 117 12 339 57 445 302 526 561 20 56 28 92 29 94z" class="color56698f svgShape"></path>
</svg>
