<svg xmlns="http://www.w3.org/2000/svg" viewBox="0 0 64 64" id="robot">
  <circle cx="30" cy="5" r="2" fill="#d8a353" class="colorff9f1c svgShape"></circle>
  <polygon fill="#fedba6" points="40 21 38 21 38 17 26 17 26 21 24 21 24 25 26 25 26 29 38 29 38 25 40 25 40 21" class="colorfec3a6 svgShape"></polygon>
  <rect width="4" height="4" x="30" y="13" fill="#8526fe" class="color4361ee svgShape"></rect>
  <rect width="4" height="4" x="30" y="29" fill="#ad59d4" class="color9b9c9b svgShape"></rect>
  <rect width="20" height="12" x="22" y="33" fill="#694f75" class="color4f5d75 svgShape"></rect>
  <rect width="4" height="10" x="24" y="45" fill="#ad59d4" class="color9b9c9b svgShape"></rect>
  <circle cx="26" cy="58" r="3" fill="#242423" class="color242423 svgShape"></circle>
  <rect width="4" height="10" x="36" y="45" fill="#ad59d4" class="color9b9c9b svgShape"></rect>
  <circle cx="38" cy="58" r="3" fill="#242423" class="color242423 svgShape"></circle>
  <rect width="4" height="4" x="26" y="37" fill="#5fe4d4" class="color41ead4 svgShape"></rect>
  <rect width="2" height="2" x="28" y="22" fill="#000000" class="color000000 svgShape"></rect>
  <rect width="2" height="2" x="34" y="22" fill="#000000" class="color000000 svgShape"></rect>
  <rect width="4" height="2" x="30" y="25" fill="#000000" class="color000000 svgShape"></rect>
  <path d="M30,12a1,1,0,0,0-1,1v3H26a1,1,0,0,0-1,1v3H24a1,1,0,0,0-1,1v4a1,1,0,0,0,1,1h1v3a1,1,0,0,0,1,1h3v2H22a1,1,0,0,0-1,1v3H19V31a1,1,0,0,0-1-1H14.816A3,3,0,0,0,12,28v2a1,1,0,0,1,0,2v2a3,3,0,0,0,2.816-2H17v5a1,1,0,0,0,1,1h3v7a1,1,0,0,0,1,1h1v9a.981.981,0,0,0,.062.307,4,4,0,1,0,5.876,0A.981.981,0,0,0,29,55V46h6v9a.981.981,0,0,0,.062.307,4,4,0,1,0,5.876,0A.981.981,0,0,0,41,55V46h1a1,1,0,0,0,1-1V38h3a1,1,0,0,0,1-1V32h2.184A3,3,0,0,0,52,34V32a1,1,0,0,1,0-2V28a3,3,0,0,0-2.816,2H46a1,1,0,0,0-1,1v5H43V33a1,1,0,0,0-1-1H35V30h3a1,1,0,0,0,1-1V26h1a1,1,0,0,0,1-1V21a1,1,0,0,0-1-1H39V17a1,1,0,0,0-1-1H35V13a1,1,0,0,0-1-1H33V10.429a1,1,0,0,0-.606-.919L31,8.912v-1.1a3,3,0,1,0-2,0V9.571a1,1,0,0,0,.606.919l1.394.6V12ZM26,60a2,2,0,1,1,2-2A2,2,0,0,1,26,60Zm-1-6V46h2v8Zm13,6a2,2,0,1,1,2-2A2,2,0,0,1,38,60Zm-1-6V46h2v8Zm4-20V44H23V34H41ZM31,32V30h2v2Zm3-14h3v3a1,1,0,0,0,1,1h1v2H38a1,1,0,0,0-1,1v3H27V25a1,1,0,0,0-1-1H25V22h1a1,1,0,0,0,1-1V18h7ZM30,6a1,1,0,1,1,1-1A1,1,0,0,1,30,6Zm3,8v2H31V14Z" fill="#000000" class="color000000 svgShape"></path>
  <path d="M30,36H26a1,1,0,0,0-1,1v4a1,1,0,0,0,1,1h4a1,1,0,0,0,1-1V37A1,1,0,0,0,30,36Zm-1,4H27V38h2Z" fill="#000000" class="color000000 svgShape"></path>
  <rect width="2" height="4" x="33" y="37" fill="#000000" class="color000000 svgShape"></rect>
  <rect width="2" height="4" x="37" y="37" fill="#000000" class="color000000 svgShape"></rect>
</svg>
