<svg xmlns="http://www.w3.org/2000/svg" viewBox="0 0 48 48" id="robotassistant">
  <g fill="#8526fe" class="color000000 svgShape">
    <path fill="#d8a353" d="M28.5 3.21a9.14 9.14 0 0 0-9 0 1 1 0 0 1-1-1.74 11.22 11.22 0 0 1 11 0 1 1 0 0 1-1 1.74zm-2.01 3.46a5 5 0 0 0-5 0 1 1 0 0 1-1-1.72 7.09 7.09 0 0 1 7 0 1 1 0 0 1-1 1.72zM23 11V9a1 1 0 0 1 2 0v2a1 1 0 0 1-2 0z" class="color424242 svgShape"></path>
    <path fill="#5fe4d4" d="M36 13h-1a3 3 0 0 0-3-3H16a3 3 0 0 0-3 3h-1a3 3 0 0 0-3 3v4a3 3 0 0 0 3 3h1a3 3 0 0 0 3 3h16a3 3 0 0 0 3-3h1a3 3 0 0 0 3-3v-4a3 3 0 0 0-3-3zm-23 8h-1a1 1 0 0 1-1-1v-4a1 1 0 0 1 1-1h1zm4-5a2 2 0 1 1 2 2 2 2 0 0 1-2-2zm11 7h-8a1 1 0 0 1 0-2h8a1 1 0 0 1 0 2zm1-5a2 2 0 1 1 2-2 2 2 0 0 1-2 2zm8 2a1 1 0 0 1-1 1h-1v-6h1a1 1 0 0 1 1 1zM21 44h6v2a2 2 0 0 1-2 2h-2a2 2 0 0 1-2-2v-2z" class="color42a5f5 svgShape"></path>
    <path fill="#d8a353" d="M43 38.18V34a1 1 0 0 0-.76-1L39 32.21A3.49 3.49 0 0 0 35.5 29c-1.33 0-.4.25-1.42-1.45A5 5 0 0 1 32 28c1.31 1.73 1 2.65 1 11a1 1 0 0 1-1 1H16a1 1 0 0 1-1-1c0-8.29-.32-9.26 1-11a5 5 0 0 1-2.08-.45c-1 1.68-.1 1.45-1.42 1.45A3.49 3.49 0 0 0 9 32.21L5.76 33A1 1 0 0 0 5 34v4.18A3 3 0 0 0 3 41v1a1 1 0 0 0 2 0v-1a1 1 0 0 1 2 0v1a1 1 0 0 0 2 0v-1a3 3 0 0 0-2-2.82v-3.4l2.44-.61A3.51 3.51 0 0 0 12.5 36h.5v3a3 3 0 0 0 3 3h16a3 3 0 0 0 3-3v-3h.5a3.51 3.51 0 0 0 3.06-1.83l2.44.61v3.4A3 3 0 0 0 39 41v1a1 1 0 0 0 2 0v-1a1 1 0 0 1 2 0v1a1 1 0 0 0 2 0v-1a3 3 0 0 0-2-2.82ZM13 34h-.5a1.5 1.5 0 0 1 0-3h.5Zm22.5 0H35v-3h.5a1.5 1.5 0 0 1 0 3Z" class="color424242 svgShape"></path>
    <path fill="#5fe4d4" d="M26 33h-4a2 2 0 0 1 0-4h4a2 2 0 0 1 0 4Z" class="color42a5f5 svgShape"></path>
  </g>
</svg>
