<svg xmlns="http://www.w3.org/2000/svg" enable-background="new 0 0 512 512" viewBox="0 0 512 512" id="robotvacuum">
  <g fill="#d8a353" class="color000000 svgShape">
    <g fill="#d8a353" class="color000000 svgShape">
      <circle cx="201" cy="101.002" r="10" fill="#5fe4d4" class="color5596fb svgShape"></circle>
      <circle cx="256" cy="101.002" r="10" fill="#5fe4d4" class="color5596fb svgShape"></circle>
      <circle cx="311" cy="101.002" r="10" fill="#5fe4d4" class="color5596fb svgShape"></circle>
      <path fill="#5fe4d4" d="M510.731 63.48c-1.272-5.375-6.661-8.695-12.034-7.429l-37.471 8.866 19.454-19.454c3.905-3.905 3.905-10.237 0-14.143-3.906-3.904-10.236-3.904-14.143 0l-19.454 19.454 8.866-37.471c1.271-5.375-2.055-10.763-7.429-12.034-5.378-1.269-10.763 2.055-12.034 7.429-3.909 16.531-16.747 70.754-17.001 71.896-1.584 7.153 4.84 13.607 12.057 11.899l71.761-16.979C508.677 74.243 512.003 68.855 510.731 63.48zM92.515 80.594c-.269-1.21-10.204-43.152-17.001-71.896-1.272-5.375-6.659-8.697-12.034-7.429-5.374 1.271-8.7 6.659-7.429 12.034l8.866 37.471L45.463 31.321c-3.906-3.904-10.236-3.904-14.143 0-3.905 3.905-3.905 10.237 0 14.143l19.454 19.454-37.471-8.866C7.927 54.784 2.54 58.106 1.269 63.48c-1.271 5.375 2.055 10.763 7.429 12.034C24.915 79.35 79.623 92.302 80.61 92.52 87.718 94.08 94.1 87.755 92.515 80.594zM371 76.27c-5.522 0-10 4.478-10 10v34.73c0 11.028-8.972 20-20 20H171c-11.028 0-20-8.972-20-20V86.27c0-5.522-4.478-10-10-10s-10 4.478-10 10v34.73c0 22.056 17.944 40 40 40h170c22.056 0 40-17.944 40-40V86.27C381 80.748 376.522 76.27 371 76.27zM256 341.001c-24.813 0-45 20.187-45 45s20.187 45 45 45 45-20.187 45-45S280.813 341.001 256 341.001zM256 411.001c-13.785 0-25-11.215-25-25s11.215-25 25-25 25 11.215 25 25S269.785 411.001 256 411.001z" class="color5596fb svgShape"></path>
      <path fill="#ad59d4" d="M511,256.001c0-140.932-114.049-255-255-255c-140.932,0-255,114.049-255,255
			c0,142.028,115.213,255,255,255S511,398.03,511,256.001z M256,21.001c125.693,0,228.649,99.194,234.712,223.41
			c-11.72-3.724-20.797-13.664-23.046-26.322c-10.067-56.579-43.253-107.641-91.05-140.092
			c-36.281-24.63-78.379-36.992-120.511-37.016s-84.301,12.291-120.722,37.016c-47.796,32.451-80.981,83.513-91.049,140.094
			c-2.249,12.656-11.326,22.596-23.046,26.32C27.351,120.194,130.307,21.001,256,21.001z M21.177,265.031
			c21.58-4.124,38.882-21.124,42.848-43.438c16.07-90.33,95.205-160.554,191.878-160.61
			c94.873-0.054,175.646,68.286,192.071,160.608c3.966,22.316,21.268,39.316,42.848,43.44
			C487.86,342.888,446.724,413.761,381,455.035v-29.034c0-68.95-55.785-125-125-125c-68.925,0-125,56.075-125,125v29.034
			C65.277,413.763,24.14,342.889,21.177,265.031z M151,466.272v-40.272c0-57.897,47.103-105,105-105c57.917,0,105,46.859,105,105
			v40.272c-32.374,16.185-68.54,24.728-105,24.728C219.541,491.001,183.376,482.458,151,466.272z" class="color283954 svgShape"></path>
      <path fill="#ad59d4" d="M224.18,234.189c-3.905,3.905-3.905,10.237,0,14.143c3.906,3.905,10.236,3.905,14.143,0
			c9.771-9.772,25.586-9.77,35.355,0c3.906,3.905,10.237,3.905,14.143,0c3.905-3.905,3.905-10.237,0-14.143
			C270.231,216.601,241.766,216.604,224.18,234.189z" class="color283954 svgShape"></path>
      <path fill="#ad59d4" d="M210.038,220.047c25.404-25.405,66.523-25.402,91.924,0c3.906,3.904,10.235,3.905,14.143,0
			c3.905-3.905,3.905-10.237,0-14.143c-33.223-33.222-86.991-33.217-120.209,0c-3.905,3.905-3.905,10.237,0,14.143
			C199.802,223.951,206.132,223.951,210.038,220.047z" class="color283954 svgShape"></path>
      <circle cx="256" cy="271.011" r="10" fill="#ad59d4" class="color283954 svgShape"></circle>
    </g>
  </g>
</svg>
