<svg xmlns="http://www.w3.org/2000/svg" viewBox="0 0 64 64" id="RobotDog">
  <path fill="#ad59d4" d="M56,37v3c0,2.94-1.59,5.51-3.95,6.89h0s-7.05,1.11-7.05,1.11H20c-3.87,0-7-3.13-7-7v-5.78c0-1.48,.18-2.94,.54-4.37l.77-3.07,2.08,.17c.41,.03,.81,0,1.2-.08l6.06-1.35c1.37-.3,2.35-1.52,2.35-2.93v-.76l3.33,2.78c1.08,.9,2.44,1.39,3.84,1.39h12.83c5.52,0,10,4.48,10,10Z" class="color865cb2 svgShape"></path>
  <path fill="#8526fe" d="M54.21,45.03c-.6,.74-1.33,1.38-2.16,1.86h0s-7.05,1.11-7.05,1.11H20c-3.87,0-7-3.13-7-7v-5.78c0-1.48,.18-2.94,.54-4.37l.77-3.07,2.08,.17c.12,0,.25,0,.37,0l-.22,.89c-.36,1.43-.54,2.89-.54,4.37v5.78c0,3.87,3.13,7,7,7h25l6.21-.97Z" class="color754ca0 svgShape"></path>
  <circle cx="46" cy="39" r="5" fill="#07f0d4" class="color07a9f0 svgShape"></circle>
  <path fill="#d8a353" d="M52.52,51.96l-2.52,5.04h-7l3-6-2.57-7.71c.75,.45,1.63,.71,2.57,.71,2.11,0,3.92-1.31,4.65-3.16l1.4,6.05h0s.71,3.06,.71,3.06c.15,.68,.07,1.39-.24,2.01Z" class="colorffc14f svgShape"></path>
  <path fill="#ffab2d" d="M51,55l-1,2h-7l3-6-2.57-7.71c.66,.4,1.42,.64,2.23,.7l2.34,7.01-.84,1.69c-.53,1.06,.24,2.31,1.43,2.31h2.41Z" class="colorffb52d svgShape"></path>
  <path fill="#d5fef9" d="M48,47c-.42,0-.81-.27-.95-.69l-1-3.01c-.17-.52,.11-1.09,.63-1.26,.52-.17,1.09,.11,1.26,.63l1,3.01c.17,.52-.11,1.09-.63,1.26-.1,.03-.21,.05-.31,.05Z" class="colord5f1fe svgShape"></path>
  <path fill="#06ceb6" d="M50.39,41.39c-.85,1.56-2.5,2.61-4.39,2.61-2.76,0-5-2.24-5-5,0-1.89,1.05-3.54,2.61-4.39-.39,.71-.61,1.52-.61,2.39,0,2.76,2.24,5,5,5,.87,0,1.68-.22,2.39-.61Z" class="color0691ce svgShape"></path>
  <path fill="#d8a353" d="M29.52,51.96l-2.52,5.04h-7l3-6-2.57-7.71c.75,.45,1.63,.71,2.57,.71,2.11,0,3.92-1.31,4.65-3.16l2.11,9.11c.15,.68,.07,1.39-.24,2.01Z" class="colorffc14f svgShape"></path>
  <path fill="#ffab2d" d="M28,55l-1,2h-7l3-6-2.57-7.71c.66,.4,1.42,.64,2.23,.7l2.34,7.01-.84,1.69c-.53,1.06,.24,2.31,1.43,2.31h2.41Z" class="colorffb52d svgShape"></path>
  <path fill="#d5fef9" d="M25,47c-.42,0-.81-.27-.95-.68l-.88-2.64c-.17-.52,.11-1.09,.63-1.26,.53-.17,1.09,.11,1.26,.63l.88,2.64c.17,.52-.11,1.09-.63,1.26-.1,.03-.21,.05-.31,.05Z" class="colord5f1fe svgShape"></path>
  <path fill="#d8a353" d="M26,20.87v2.72c0,1.41-.98,2.63-2.35,2.93l-6.06,1.35c-.39,.09-.79,.11-1.2,.08l-2.08-.17-2.11-.18c-4.51-.38-8.54-2.95-10.78-6.87-.28-.48-.42-1.02-.42-1.57,0-.87,.36-1.66,.93-2.23s1.36-.93,2.23-.93h1.84l5.11-7.66c.56-.84,1.49-1.34,2.5-1.34h5.97l4.51,3.28,.37,1.1c1.02,3.06,1.54,6.26,1.54,9.49Z" class="colorffc14f svgShape"></path>
  <path fill="#ffab2d" d="M25.87,24.46c-.31,1.02-1.14,1.82-2.22,2.06l-6.06,1.35c-.39,.09-.79,.11-1.2,.08l-2.08-.17-2.11-.18c-4.51-.38-8.54-2.95-10.78-6.87-.28-.48-.42-1.02-.42-1.57,0-.87,.36-1.66,.93-2.23,.34-.34,.76-.61,1.23-.77-.1,.32-.16,.65-.16,1,0,.55,.14,1.09,.42,1.57,2.24,3.92,6.27,6.49,10.78,6.87l2.11,.18,2.08,.17c.41,.03,.81,0,1.2-.08l6.06-1.35c.08-.02,.15-.04,.22-.06Z" class="colorffb52d svgShape"></path>
  <path fill="#d5fef9" d="M9.33,11h3.17c1.38,0,2.5,1.12,2.5,2.5,0,.69-.28,1.32-.73,1.77s-1.08,.73-1.77,.73H6l3.33-5Z" class="colord5f1fe svgShape"></path>
  <path fill="#5fe4d4" d="M14.95,14c-.1,.49-.34,.93-.68,1.27-.45,.45-1.08,.73-1.77,.73H6l3.33-5h1.67l-.96,1.45c-.45,.66,.03,1.55,.83,1.55h4.08Z" class="colorb4e7fd svgShape"></path>
  <circle cx="19" cy="21" r="3" fill="#07f0d4" class="color07a9f0 svgShape"></circle>
  <path fill="#06ceb6" d="M21.98,21.24c-.11,1.55-1.4,2.76-2.98,2.76-1.66,0-3-1.34-3-3,0-.9,.39-1.7,1.02-2.24-.02,.08-.02,.16-.02,.24,0,1.66,1.34,3,3,3,.76,0,1.45-.29,1.98-.76Z" class="color0691ce svgShape"></path>
  <path fill="#07f0d4" d="M19.29,11.15c-1.16-.58-1.47-2.1-.62-3.09l3.71-4.33c.39-.46,.97-.72,1.57-.72h0c1.46,0,2.46,1.48,1.92,2.83l-2.06,5.15c-.43,1.09-1.7,1.57-2.75,1.05l-1.76-.88Z" class="color07a9f0 svgShape"></path>
  <path fill="#06ceb6" d="M22.29,10.15l1.54,.77-.02,.06c-.44,1.09-1.71,1.57-2.75,1.05l-1.77-.88c-1.16-.59-1.47-2.11-.62-3.09l3.71-4.34c.39-.46,.97-.72,1.57-.72,.36,0,.69,.09,.98,.25l-3.26,3.81c-.85,.98-.54,2.5,.62,3.09Z" class="color0691ce svgShape"></path>
  <path fill="#07f0d4" d="M27,57v4h-10v-1c0-1.66,1.34-3,3-3h7Z" class="color07a9f0 svgShape"></path>
  <path fill="#06ceb6" d="M27,59v2h-10v-1c0-1.66,1.34-3,3-3h.18c-.12,.31-.18,.65-.18,1,0,.55,.45,1,1,1h6Z" class="color0691ce svgShape"></path>
  <path fill="#d5fef9" d="M25,56v1h-2v-1c0-.55,.45-1,1-1s1,.45,1,1Z" class="colord5f1fe svgShape"></path>
  <path fill="#d8a353" d="M23,51l-3,6h-5l3-6-1.27-3.81c.98,.52,2.09,.81,3.27,.81h2l1,3Z" class="colorffc14f svgShape"></path>
  <path fill="#ffab2d" d="M21,55l-1,2h-5l3-6-1.27-3.81c.69,.37,1.44,.62,2.24,.73l1.03,3.08-1.28,2.55c-.33,.67,.15,1.45,.9,1.45h1.38Z" class="colorffb52d svgShape"></path>
  <path fill="#07f0d4" d="M20,57c-1.66,0-3,1.34-3,3v1h-5v-1c0-1.66,1.34-3,3-3h5Z" class="color07a9f0 svgShape"></path>
  <path fill="#06ceb6" d="M14.99,59h2.19c-.12,.31-.18,.65-.18,1v1h-5v-1c0-1.36,.89-2.5,2.13-2.87-.08,.27-.13,.57-.13,.87h0c0,.56,.44,1,.99,1Z" class="color0691ce svgShape"></path>
  <path fill="#d5fef9" d="M20,56v1h-2v-1c0-.55,.45-1,1-1s1,.45,1,1Z" class="colord5f1fe svgShape"></path>
  <path fill="#07f0d4" d="M50,57v4h-10v-1c0-1.66,1.34-3,3-3h7Z" class="color07a9f0 svgShape"></path>
  <path fill="#d5fef9" d="M48,56v1h-2v-1c0-.55,.45-1,1-1s1,.45,1,1Z" class="colord5f1fe svgShape"></path>
  <polygon fill="#d8a353" points="46 51 43 57 38 57 41 51 40 48 45 48 46 51" class="colorffc14f svgShape"></polygon>
  <path fill="#ffab2d" d="M44,55l-1,2h-5l3-6-1-3h2l1,3-1.28,2.55c-.33,.67,.15,1.45,.9,1.45h1.38Z" class="colorffb52d svgShape"></path>
  <path fill="#07f0d4" d="M43,57c-1.66,0-3,1.34-3,3v1h-5v-1c0-1.66,1.34-3,3-3h5Z" class="color07a9f0 svgShape"></path>
  <path fill="#d5fef9" d="M43,56v1h-2v-1c0-.55,.45-1,1-1s1,.45,1,1Z" class="colord5f1fe svgShape"></path>
  <circle cx="23" cy="39" r="2" fill="#d5fef9" class="colord5f1fe svgShape"></circle>
  <circle cx="46" cy="39" r="2" fill="#d5fef9" class="colord5f1fe svgShape"></circle>
  <path fill="#07f0d4" d="M63,17.66c0,.22-.05,.44-.15,.64l-1.85,3.7-.78,5.48c-.14,.98-.64,1.87-1.4,2.5l-3.65,3.04c-.93-2.15-2.6-3.91-4.69-4.95l5.52-3.07,.79-4.72c.13-.82,.6-1.54,1.29-2l2.7-1.8c.95-.63,2.22,.04,2.22,1.18Z" class="color07a9f0 svgShape"></path>
  <path fill="#06ceb6" d="M62.55,16.63l-2.47,1.65c-.69,.46-1.16,1.18-1.29,2l-.79,4.72-1.9,1.06c-1.57,.87-1.85,2.94-.66,4.27,.42,.47,.8,.98,1.12,1.53l-1.39,1.16c-.93-2.15-2.6-3.91-4.69-4.95l5.52-3.07,.79-4.72c.13-.82,.6-1.54,1.29-2l2.7-1.8c.6-.4,1.32-.28,1.77,.15Z" class="color0691ce svgShape"></path>
  <path fill="#5fe4d4" d="M47.82,39.82c-.31,.69-1.01,1.18-1.82,1.18-1.1,0-2-.9-2-2,0-.81,.49-1.51,1.18-1.82-.12,.25-.18,.53-.18,.82,0,1.1,.9,2,2,2,.29,0,.57-.06,.82-.18Z" class="colorb4e7fd svgShape"></path>
  <circle cx="23" cy="39" r="5" fill="#07f0d4" class="color07a9f0 svgShape"></circle>
  <path fill="#06ceb6" d="M27.39,41.39c-.85,1.56-2.5,2.61-4.39,2.61-2.76,0-5-2.24-5-5,0-1.89,1.05-3.54,2.61-4.39-.39,.71-.61,1.52-.61,2.39,0,2.76,2.24,5,5,5,.87,0,1.68-.22,2.39-.61Z" class="color0691ce svgShape"></path>
  <circle cx="23" cy="39" r="2" fill="#d5fef9" class="colord5f1fe svgShape"></circle>
  <path fill="#5fe4d4" d="M24.82,39.82c-.31,.69-1.01,1.18-1.82,1.18-1.1,0-2-.9-2-2,0-.81,.49-1.51,1.18-1.82-.12,.25-.18,.53-.18,.82,0,1.1,.9,2,2,2,.29,0,.57-.06,.82-.18Z" class="colorb4e7fd svgShape"></path>
  <path fill="#06ceb6" d="M50,59v2h-10v-1c0-1.66,1.34-3,3-3h.18c-.12,.31-.18,.65-.18,1,0,.55,.45,1,1,1h6Z" class="color0691ce svgShape"></path>
  <path fill="#06ceb6" d="M37.99,59h2.19c-.12,.31-.18,.65-.18,1v1h-5v-1c0-1.36,.89-2.5,2.13-2.87-.08,.27-.13,.57-.13,.87h0c0,.56,.44,1,.99,1Z" class="color0691ce svgShape"></path>
</svg>
