<svg xmlns="http://www.w3.org/2000/svg" xml:space="preserve" viewBox="0 0 24 24" id="Robot">
  <g id="Duotone" fill="#d8a353" class="color000000 svgShape">
    <path d="m16 10.5 4-4-4-4H7l-4 4 4 4zM15.5 23.5h-8L6 16l2.5-2.5h6L17 16z" fill="#8526fe" class="colorffffff svgShape"></path>
    <path d="m7.1 21.5.4 2h8l.4-2zM3 6.5l4 4h9l4-4h-2L15.5 9h-8L5 6.5z" fill="#5fe4d4" class="colorcce7ff svgShape"></path>
    <path d="M10.5 7 9 8 7.5 7V5.5l1.5-1 1.5 1zM12.5 7 14 8l1.5-1V5.5l-1.5-1-1.5 1z" fill="#5fe4d4" class="colorcce7ff svgShape"></path>
    <path d="m16 10.5 4-4-4-4H7l-4 4 4 4z" fill="none" stroke="#ad59d4" stroke-linecap="round" stroke-linejoin="round" stroke-miterlimit="10" class="colorStroke1078ff svgStroke"></path>
    <path d="M10.5 7 9 8 7.5 7V5.5l1.5-1 1.5 1zM12.5 7 14 8l1.5-1V5.5l-1.5-1-1.5 1zM11.5.5v2M15.5 23.5h-8L6 16l2.5-2.5h6L17 16zM11.5 10.5v3M7.1 21.5h8.8" fill="none" stroke="#ad59d4" stroke-linecap="round" stroke-linejoin="round" stroke-miterlimit="10" class="colorStroke1078ff svgStroke"></path>
    <path d="m2.5 16 .5 3 3.4-1M.5 12.5V14l2 2 2-2v-1.5M20.5 16l-.5 3-3.4-1.1M22.5 12.5V14l-2 2-2-2v-1.5" fill="none" stroke="#ad59d4" stroke-linecap="round" stroke-linejoin="round" stroke-miterlimit="10" class="colorStroke1078ff svgStroke"></path>
  </g>
  <path id="Frames-24px" fill="none" d="M0 0h24v24H0z"></path>
</svg>
