<svg xmlns="http://www.w3.org/2000/svg" viewBox="0 0 512 512" id="TabRobot">
  <path fill="#d8a353" d="M164.3 116.65V156.9h-.49a20.125 20.125 0 1 1 0-40.25zM362.42 122.54a20.124 20.124 0 0 1-14.23 34.36h-.49V116.65h.49A20.057 20.057 0 0 1 362.42 122.54zM255 54.49a16.385 16.385 0 1 1 1 .03C255.66 54.52 255.33 54.51 255 54.49z" class="colorf4b844 svgShape"></path>
  <rect width="25.9" height="25.9" x="279.85" y="105.49" fill="#d8a353" class="colorf4b844 svgShape"></rect>
  <rect width="25.9" height="25.9" x="206.25" y="105.49" fill="#d8a353" class="colorf4b844 svgShape"></rect>
  <rect width="91.12" height="24.71" x="210.44" y="157.29" fill="#d8a353" class="colorf4b844 svgShape"></rect>
  <polygon fill="#d8a353" points="297.97 232.41 297.97 233.08 214.03 233.08 214.03 232.41 214.03 205.9 214.03 205.37 297.97 205.37 297.97 232.41" class="colorf4b844 svgShape"></polygon>
  <rect width="115.76" height="40.68" x="198.12" y="274.42" fill="#d8a353" class="colorf4b844 svgShape"></rect>
  <path fill="#ad59d4" d="M255,54.49c.33.02.66.03,1,.03a16.334,16.334,0,0,0,12.77-6.13l.11.08H388.89a40.111,40.111,0,0,1,40,40v371.6c.51,16.57-13.05,30.12-29.61,30.12H123.09a40.118,40.118,0,0,1-40-40V88.47a40.124,40.124,0,0,1,40-40H243.13l.1-.08A16.368,16.368,0,0,0,255,54.49ZM388.7,417.82V87.16h-41V76.5H164.3V87.16h-41V417.82Z" class="color00acea svgShape"></path>
  <path fill="#5fe4d4" d="M388.7,87.16V417.82H123.3V87.16h41v29.49h-.49a20.125,20.125,0,1,0,0,40.25h.49v48.47h49.73v27.71H193.34a51.461,51.461,0,0,0-51.46,51.46V315.1H370.12V284.54a51.461,51.461,0,0,0-51.46-51.46H297.97V205.37H347.7V156.9h.49a20.125,20.125,0,1,0,0-40.25h-.49V87.16Z" class="color00efd1 svgShape"></path>
  <path fill="#feb341" d="M370.12 284.54V315.1H313.88V274.42H198.12V315.1H141.88V284.54a51.461 51.461 0 0 1 51.46-51.46H318.66A51.461 51.461 0 0 1 370.12 284.54zM164.3 87.16V76.5H347.7V205.37H164.3V87.16zm141.45 44.23v-25.9h-25.9v25.9zM301.56 182V157.29H210.44V182zm-69.41-50.61v-25.9h-25.9v25.9z" class="colorfedb41 svgShape"></path>
  <path fill="#8526fe" d="M388.89,40H280.24a11.238,11.238,0,0,0,.12-2.075,24.361,24.361,0,0,0-48.72-.059A12.059,12.059,0,0,0,231.76,40H123.068C96.7,41,75,62.062,75,88.47V450.215C75,476.6,96.7,498,123.09,498H399.28a38.053,38.053,0,0,0,27.206-11.387A37.673,37.673,0,0,0,437,459.955V88.449C437,62.064,415.3,41,388.89,40ZM256,29.81a8.364,8.364,0,0,1,8.36,8.35,8.242,8.242,0,0,1-1.831,5.224A8.33,8.33,0,0,1,256,46.52c-.18,0-.354-.005-.514-.015a8.415,8.415,0,0,1-6.022-3.13,8.243,8.243,0,0,1-1.824-5.215A8.364,8.364,0,0,1,256,29.81ZM376.471,136.78a27.883,27.883,0,0,0-8.169-19.9,31.639,31.639,0,0,0-12.3-7.218V95h25V410H131V95h25v14.666a31.386,31.386,0,0,0-12.227,7.217A28.073,28.073,0,0,0,156,163.874v41.5c0,4.419,3.882,7.63,8.3,7.63H206v12H193.34A59.494,59.494,0,0,0,134,284.54V315.1a7.813,7.813,0,0,0,7.88,7.9H370.12a7.813,7.813,0,0,0,7.88-7.9V284.54A59.494,59.494,0,0,0,318.66,225H306V213h41.7c4.418,0,8.3-3.211,8.3-7.63v-41.5A27.89,27.89,0,0,0,376.471,136.78ZM356,146.28V127.261c0,.292.576.6.914.936a12.135,12.135,0,0,1,3.631,8.583A11.484,11.484,0,0,1,356,146.28ZM156,127.261V146.28a11.422,11.422,0,0,1-4.471-9.5,11.99,11.99,0,0,1,3.484-8.584C155.35,127.859,156,127.552,156,127.261ZM318.66,241A43.475,43.475,0,0,1,362,284.54V307H322V274.42a8.472,8.472,0,0,0-8.12-8.42H198.12a8.472,8.472,0,0,0-8.12,8.42V307H150V284.54A43.475,43.475,0,0,1,193.34,241ZM222,225V213h68v12Zm84,57v25H206V282Zm34-85H172V85H340Zm81,263.07c0,.082-.055.117-.051.2a20.774,20.774,0,0,1-6.006,15.206A21.547,21.547,0,0,1,399.28,482H123.111A32.037,32.037,0,0,1,91,450.19V88.5C91,70.884,105.511,57,123.09,56H239.95A22.758,22.758,0,0,0,247,60.787V69H164.3c-4.418,0-8.3,3.082-8.3,7.5V79H123.3a8.4,8.4,0,0,0-8.3,8.16V417.82a8.417,8.417,0,0,0,8.3,8.18H388.7a8.417,8.417,0,0,0,8.3-8.18V87.16A8.4,8.4,0,0,0,388.7,79H356V76.5c0-4.418-3.882-7.5-8.3-7.5H263V61.5a18.419,18.419,0,0,0,9.072-5.5h116.8C406.478,57,421,70.883,421,88.47Z" class="color083863 svgShape"></path>
  <path fill="#8526fe" d="M268.55 446h-25.1a8 8 0 0 0 0 16h25.1a8 8 0 0 0 0-16zM301 149H210a8 8 0 0 0-8 8v25a8 8 0 0 0 8 8h91a8 8 0 0 0 8-8V157A8 8 0 0 0 301 149zm-7 25H218v-9h76zM206 139h26a8 8 0 0 0 8-8V105a8 8 0 0 0-8-8H206a8 8 0 0 0-8 8v26A8 8 0 0 0 206 139zm8-26h10v10H214zM280 139h26a8 8 0 0 0 8-8V105a8 8 0 0 0-8-8H280a8 8 0 0 0-8 8v26A8 8 0 0 0 280 139zm8-26h10v10H288z" class="color083863 svgShape"></path>
</svg>
