<svg xmlns="http://www.w3.org/2000/svg" xmlns:xlink="http://www.w3.org/1999/xlink" xml:space="preserve" id="ToyRobot" x="0" y="0" enable-background="new 0 0 64 64" version="1.1" viewBox="0 0 64 64">
  <pattern id="New_Pattern_Swatch_15" width="28.56" height="28.56" x="-588" y="-252" overflow="visible" patternUnits="userSpaceOnUse" viewBox="0 -28.56 28.56 28.56">
    <rect width="28.56" height="28.56" y="-28.56" fill="none"></rect>
    <rect width="28.56" height="28.56" y="-28.56" fill="#8526fe" class="colorffdc73 svgShape"></rect>
  </pattern>
  <pattern id="New_Pattern_Swatch_16" width="28.56" height="28.56" x="-588" y="-252" overflow="visible" patternUnits="userSpaceOnUse" viewBox="0 -28.56 28.56 28.56">
    <rect width="28.56" height="28.56" y="-28.56" fill="none"></rect>
    <rect width="28.56" height="28.56" y="-28.56" fill="#d8a353" class="colorfac964 svgShape"></rect>
  </pattern>
  <pattern id="New_Pattern_Swatch_24" width="28.56" height="28.56" x="-588" y="-252" overflow="visible" patternUnits="userSpaceOnUse" viewBox="0 -28.56 28.56 28.56">
    <rect width="28.56" height="28.56" y="-28.56" fill="none"></rect>
    <rect width="28.56" height="28.56" y="-28.56" fill="#ad59d4" class="color4b518a svgShape"></rect>
  </pattern>
  <pattern xlink:href="#New_Pattern_Swatch_24" id="SVGID_1_" patternTransform="translate(-4.334 -13.668)"></pattern>
  <path fill="url(#SVGID_1_)" d="M56.93,37.52l-4.95-8.14c0.15-0.52,0.23-1.07,0.23-1.64c0-3.3-2.67-5.98-5.97-5.98
		c-2.29,0-4.29,1.31-5.29,3.21h-5.9v-3.44h4.47c1.38,0,2.5-1.12,2.5-2.5V5.72c0-1.37-1.12-2.49-2.5-2.49h-4.27V1.08
		c0-0.6-0.48-1.08-1.08-1.08h-5.72c-0.6,0-1.08,0.48-1.08,1.08v2.15h-4.03c-1.38,0-2.5,1.12-2.5,2.49v13.31c0,1.38,1.12,2.5,2.5,2.5
		h5.13v3.44h-5.02c-1-1.9-2.99-3.21-5.29-3.21c-3.29,0-5.97,2.68-5.97,5.98c0,0.4,0.04,0.79,0.11,1.17l-5.23,8.62
		c-1.69,0.44-2.95,1.97-2.95,3.8c0,1.69,1.08,3.13,2.58,3.68c0.4,0.79,2.3,5.15,3.29,7.48c-0.14,0.42-0.24,0.86-0.24,1.33
		c0,2.3,1.87,4.17,4.17,4.17s4.17-1.87,4.17-4.17c0-2.02-1.44-3.7-3.34-4.09l-3.02-6.98C11.9,42.31,12,41.83,12,41.33
		c0-0.48-0.1-0.94-0.26-1.37l4.37-6.62c0.49,0.18,1.01,0.3,1.55,0.35v7.19c0,4.83,2.37,9.1,6,11.75v2.96c0,1.77,1.35,3.21,3.07,3.39
		c0.24,2.81,2.59,5.02,5.46,5.02c2.88,0,5.24-2.21,5.47-5.02c1.72-0.18,3.07-1.62,3.07-3.39v-2.95c3.64-2.65,6.01-6.93,6.01-11.76
		v-7.19c0.42-0.04,0.83-0.12,1.22-0.23l4.3,6.5C52.1,40.39,52,40.84,52,41.33c0,0.5,0.1,0.98,0.27,1.42l-3.02,6.98
		c-1.9,0.39-3.34,2.07-3.34,4.09c0,2.3,1.87,4.17,4.17,4.17s4.17-1.87,4.17-4.17c0-0.47-0.1-0.91-0.24-1.33
		c0.99-2.33,2.89-6.69,3.29-7.48c1.5-0.55,2.58-1.99,2.58-3.68C59.88,39.5,58.62,37.97,56.93,37.52z M28.37,1.08
		C28.37,1.04,28.4,1,28.45,1h5.72c0.05,0,0.08,0.04,0.08,0.08v2.15h-5.88V1.08z M23.34,20.53c-0.83,0-1.5-0.67-1.5-1.5V5.72
		c0-0.82,0.67-1.49,1.5-1.49h16.18c0.83,0,1.5,0.67,1.5,1.49v13.31c0,0.83-0.67,1.5-1.5,1.5h-4.95c-0.01,0-0.01,0-0.02,0h-5.58
		c-0.01,0-0.01,0-0.02,0H23.34z M34.05,21.53v3.44h-4.58v-3.44H34.05z M5.12,41.33c0-1.62,1.32-2.95,2.94-2.95S11,39.71,11,41.33
		c0,1.62-1.32,2.94-2.94,2.94S5.12,42.95,5.12,41.33z M17.09,53.82c0,1.74-1.42,3.17-3.17,3.17s-3.17-1.43-3.17-3.17
		c0-1.75,1.42-3.17,3.17-3.17S17.09,52.07,17.09,53.82z M13.64,49.68c-1.25,0.08-2.35,0.71-3.05,1.66
		c-1.43-3.35-2.22-5.14-2.67-6.08c0.05,0,0.09,0.01,0.14,0.01c1.23,0,2.31-0.58,3.04-1.46L13.64,49.68z M11.2,38.97
		c-0.67-0.89-1.71-1.48-2.89-1.56l4.4-7.24c0.52,1.16,1.39,2.12,2.49,2.75L11.2,38.97z M18.15,32.71c-2.74,0-4.96-2.23-4.96-4.97
		s2.23-4.98,4.97-4.98c2.74,0,4.97,2.24,4.97,4.98S20.9,32.71,18.15,32.71C18.15,32.71,18.15,32.71,18.15,32.71z M32.19,63
		c-2.3,0-4.18-1.75-4.43-3.98h8.88C36.38,61.25,34.5,63,32.19,63z M39.73,55.59c0,1.34-1.09,2.43-2.42,2.43H27.09
		c-1.34,0-2.43-1.09-2.43-2.43V53.3c2.2,1.34,4.78,2.13,7.54,2.13s5.33-0.79,7.53-2.13V55.59z M45.74,40.88
		c0,7.47-6.07,13.55-13.54,13.55c-7.47,0-13.54-6.08-13.54-13.55v-7.19c3.06-0.26,5.47-2.82,5.47-5.95c0-0.62-0.09-1.21-0.26-1.77
		h16.66c-0.17,0.56-0.26,1.15-0.26,1.77c0,3.12,2.41,5.69,5.47,5.95V40.88z M46.24,32.71c-1.37,0-2.61-0.56-3.51-1.46
		c-0.9-0.9-1.46-2.14-1.46-3.51c0-2.74,2.23-4.98,4.97-4.98s4.97,2.24,4.97,4.98S48.99,32.71,46.24,32.71z M48.91,33.08
		c1.11-0.56,2.02-1.45,2.6-2.54l4.18,6.87c-1.18,0.08-2.22,0.67-2.89,1.56L48.91,33.08z M50.08,56.99c-1.75,0-3.17-1.43-3.17-3.17
		c0-1.75,1.42-3.17,3.17-3.17s3.17,1.42,3.17,3.17C53.25,55.56,51.83,56.99,50.08,56.99z M53.41,51.34c-0.7-0.95-1.8-1.58-3.05-1.66
		l2.54-5.87c0.73,0.88,1.81,1.46,3.04,1.46c0.05,0,0.09-0.01,0.14-0.01C55.63,46.2,54.84,47.99,53.41,51.34z M55.94,44.27
		c-1.62,0-2.94-1.32-2.94-2.94c0-1.62,1.32-2.95,2.94-2.95s2.94,1.33,2.94,2.95C58.88,42.95,57.56,44.27,55.94,44.27z"></path>
  <pattern xlink:href="#New_Pattern_Swatch_15" id="SVGID_2_" patternTransform="translate(-4.333 -13.668)"></pattern>
  <path fill="url(#SVGID_2_)" d="M55.69,37.41c-1.18,0.08-2.22,0.67-2.89,1.56l-3.89-5.89c1.11-0.56,2.02-1.45,2.6-2.54L55.69,37.41z"></path>
  <pattern xlink:href="#New_Pattern_Swatch_15" id="SVGID_3_" patternTransform="translate(-4.333 -13.668)"></pattern>
  <path fill="url(#SVGID_3_)" d="M56.08,45.26c-0.45,0.94-1.24,2.73-2.67,6.08c-0.7-0.95-1.8-1.58-3.05-1.66l2.54-5.87
		c0.73,0.88,1.81,1.46,3.04,1.46C55.99,45.27,56.03,45.26,56.08,45.26z"></path>
  <pattern xlink:href="#New_Pattern_Swatch_15" id="SVGID_4_" patternTransform="translate(-4.333 -13.668)"></pattern>
  <path fill="url(#SVGID_4_)" d="M13.64,49.68c-1.25,0.08-2.35,0.71-3.05,1.66c-1.43-3.35-2.22-5.14-2.67-6.08c0.05,0,0.09,0.01,0.14,0.01
		c1.23,0,2.31-0.58,3.04-1.46L13.64,49.68z"></path>
  <pattern xlink:href="#New_Pattern_Swatch_15" id="SVGID_5_" patternTransform="translate(-4.333 -13.668)"></pattern>
  <path fill="url(#SVGID_5_)" d="M15.2,32.92l-4,6.05c-0.67-0.89-1.71-1.48-2.89-1.56l4.4-7.24C13.23,31.33,14.1,32.29,15.2,32.92z"></path>
  <pattern xlink:href="#New_Pattern_Swatch_15" id="SVGID_6_" patternTransform="translate(-4.333 -13.668)"></pattern>
  <path fill="url(#SVGID_6_)" d="M39.73,53.3v2.29c0,1.34-1.09,2.43-2.42,2.43H27.09c-1.34,0-2.43-1.09-2.43-2.43V53.3
		c2.2,1.34,4.78,2.13,7.54,2.13S37.53,54.64,39.73,53.3z"></path>
  <pattern xlink:href="#New_Pattern_Swatch_16" id="SVGID_7_" patternTransform="translate(-4.333 -13.668)"></pattern>
  <path fill="url(#SVGID_7_)" d="M36.64,59.02C36.38,61.25,34.5,63,32.19,63c-2.3,0-4.18-1.75-4.43-3.98H36.64z"></path>
  <pattern xlink:href="#New_Pattern_Swatch_16" id="SVGID_8_" patternTransform="translate(-4.333 -13.668)"></pattern>
  <path fill="url(#SVGID_8_)" d="M53.25,53.82c0,1.74-1.42,3.17-3.17,3.17s-3.17-1.43-3.17-3.17c0-1.75,1.42-3.17,3.17-3.17
		S53.25,52.07,53.25,53.82z"></path>
  <pattern xlink:href="#New_Pattern_Swatch_16" id="SVGID_9_" patternTransform="translate(-4.333 -13.668)"></pattern>
  <path fill="url(#SVGID_9_)" d="M58.88,41.33c0,1.62-1.32,2.94-2.94,2.94S53,42.95,53,41.33c0-1.62,1.32-2.95,2.94-2.95
		S58.88,39.71,58.88,41.33z"></path>
  <pattern xlink:href="#New_Pattern_Swatch_16" id="SVGID_10_" patternTransform="translate(-4.333 -13.668)"></pattern>
  <path fill="url(#SVGID_10_)" d="M51.21,27.74c0,2.74-2.22,4.97-4.97,4.97c-1.37,0-2.61-0.56-3.51-1.46c-0.9-0.9-1.46-2.14-1.46-3.51
		c0-2.74,2.23-4.98,4.97-4.98S51.21,25,51.21,27.74z"></path>
  <pattern xlink:href="#New_Pattern_Swatch_16" id="SVGID_11_" patternTransform="translate(-4.333 -13.668)"></pattern>
  <path fill="url(#SVGID_11_)" d="M23.13,27.74c0,2.74-2.23,4.97-4.97,4.97c-0.01,0-0.01,0-0.01,0c-2.74,0-4.96-2.23-4.96-4.97
		s2.23-4.98,4.97-4.98C20.9,22.76,23.13,25,23.13,27.74z"></path>
  <pattern xlink:href="#New_Pattern_Swatch_16" id="SVGID_12_" patternTransform="translate(-4.333 -13.668)"></pattern>
  <path fill="url(#SVGID_12_)" d="M11,41.33c0,1.62-1.32,2.94-2.94,2.94s-2.94-1.32-2.94-2.94c0-1.62,1.32-2.95,2.94-2.95S11,39.71,11,41.33z"></path>
  <pattern xlink:href="#New_Pattern_Swatch_16" id="SVGID_13_" patternTransform="translate(-4.333 -13.668)"></pattern>
  <path fill="url(#SVGID_13_)" d="M17.09,53.82c0,1.74-1.42,3.17-3.17,3.17s-3.17-1.43-3.17-3.17c0-1.75,1.42-3.17,3.17-3.17
		S17.09,52.07,17.09,53.82z"></path>
  <pattern xlink:href="#New_Pattern_Swatch_15" id="SVGID_14_" patternTransform="translate(-4.333 -13.668)"></pattern>
  <path fill="url(#SVGID_14_)" d="M39.52,4.23H23.34c-0.83,0-1.5,0.67-1.5,1.49v13.31c0,0.83,0.67,1.5,1.5,1.5h5.61c0.01,0,0.01,0,0.02,0h5.58
		c0.01,0,0.01,0,0.02,0h4.95c0.83,0,1.5-0.67,1.5-1.5V5.72C41.02,4.9,40.35,4.23,39.52,4.23z M26.91,15.3
		c-1.62,0-2.93-1.31-2.93-2.92c0-1.62,1.31-2.93,2.93-2.93c1.61,0,2.92,1.31,2.92,2.93C29.83,13.99,28.52,15.3,26.91,15.3z
		 M36.27,15.3c-1.61,0-2.92-1.31-2.92-2.92c0-1.62,1.31-2.93,2.92-2.93c1.62,0,2.93,1.31,2.93,2.93
		C39.2,13.99,37.89,15.3,36.27,15.3z"></path>
  <pattern xlink:href="#New_Pattern_Swatch_15" id="SVGID_15_" patternTransform="translate(-4.333 -13.668)"></pattern>
  <path fill="url(#SVGID_15_)" d="M40.27,27.74c0-0.62,0.09-1.21,0.26-1.77H23.87c0.17,0.56,0.26,1.15,0.26,1.77c0,3.13-2.41,5.69-5.47,5.95
		v7.19c0,7.47,6.07,13.55,13.54,13.55c7.47,0,13.54-6.08,13.54-13.55v-7.19C42.68,33.43,40.27,30.86,40.27,27.74z M37.28,35.09
		c0,3.19-2.59,5.78-5.77,5.78c-3.19,0-5.78-2.59-5.78-5.78v-7.35c0-0.28,0.22-0.5,0.5-0.5h10.55c0.28,0,0.5,0.22,0.5,0.5V35.09z"></path>
  <pattern xlink:href="#New_Pattern_Swatch_24" id="SVGID_16_" patternTransform="translate(-4.334 -13.668)"></pattern>
  <path fill="url(#SVGID_16_)" d="M36.78,27.24H26.23c-0.28,0-0.5,0.22-0.5,0.5v7.35c0,3.19,2.59,5.78,5.78,5.78c3.18,0,5.77-2.59,5.77-5.78
		v-7.35C37.28,27.46,37.06,27.24,36.78,27.24z M36.28,35.09c0,2.64-2.14,4.78-4.77,4.78c-2.64,0-4.78-2.14-4.78-4.78v-6.85h9.55
		V35.09z"></path>
  <pattern xlink:href="#New_Pattern_Swatch_15" id="SVGID_17_" patternTransform="translate(-4.333 -13.668)"></pattern>
  <path fill="url(#SVGID_17_)" d="M26.73,28.24v6.85c0,2.64,2.14,4.78,4.78,4.78c2.63,0,4.77-2.14,4.77-4.78v-6.85H26.73z M34.45,36.1h-5.89
		c-0.28,0-0.5-0.22-0.5-0.5c0-0.27,0.22-0.5,0.5-0.5h5.89c0.28,0,0.5,0.23,0.5,0.5C34.95,35.88,34.73,36.1,34.45,36.1z M34.45,33
		h-5.89c-0.28,0-0.5-0.22-0.5-0.5c0-0.28,0.22-0.5,0.5-0.5h5.89c0.28,0,0.5,0.22,0.5,0.5C34.95,32.78,34.73,33,34.45,33z"></path>
  <pattern xlink:href="#New_Pattern_Swatch_24" id="SVGID_18_" patternTransform="translate(-4.334 -13.668)"></pattern>
  <path fill="url(#SVGID_18_)" d="M34.95,32.5c0,0.28-0.22,0.5-0.5,0.5h-5.89c-0.28,0-0.5-0.22-0.5-0.5c0-0.28,0.22-0.5,0.5-0.5h5.89
		C34.73,32,34.95,32.22,34.95,32.5z"></path>
  <pattern xlink:href="#New_Pattern_Swatch_24" id="SVGID_19_" patternTransform="translate(-4.334 -13.668)"></pattern>
  <path fill="url(#SVGID_19_)" d="M34.95,35.6c0,0.28-0.22,0.5-0.5,0.5h-5.89c-0.28,0-0.5-0.22-0.5-0.5c0-0.27,0.22-0.5,0.5-0.5h5.89
		C34.73,35.1,34.95,35.33,34.95,35.6z"></path>
  <pattern xlink:href="#New_Pattern_Swatch_24" id="SVGID_20_" patternTransform="translate(-4.334 -13.668)"></pattern>
  <path fill="url(#SVGID_20_)" d="M26.91,9.45c-1.62,0-2.93,1.31-2.93,2.93c0,1.61,1.31,2.92,2.93,2.92c1.61,0,2.92-1.31,2.92-2.92
		C29.83,10.76,28.52,9.45,26.91,9.45z M26.91,14.3c-1.07,0-1.93-0.86-1.93-1.92s0.86-1.93,1.93-1.93c1.06,0,1.92,0.87,1.92,1.93
		S27.97,14.3,26.91,14.3z"></path>
  <pattern xlink:href="#New_Pattern_Swatch_24" id="SVGID_21_" patternTransform="translate(-4.334 -13.668)"></pattern>
  <path fill="url(#SVGID_21_)" d="M36.27,9.45c-1.61,0-2.92,1.31-2.92,2.93c0,1.61,1.31,2.92,2.92,2.92c1.62,0,2.93-1.31,2.93-2.92
		C39.2,10.76,37.89,9.45,36.27,9.45z M36.27,14.3c-1.06,0-1.92-0.86-1.92-1.92s0.86-1.93,1.92-1.93c1.07,0,1.93,0.87,1.93,1.93
		S37.34,14.3,36.27,14.3z"></path>
</svg>
